<svg width="149" height="136" viewBox="0 0 149 136" fill="none" xmlns="http://www.w3.org/2000/svg">
<circle opacity="0.1" cx="81.5" cy="67.8426" r="67.5" fill="url(#paint0_linear_37_1686)"/>
<path fill-rule="evenodd" clip-rule="evenodd" d="M76.4231 66.8438C64.6435 66.8438 55.0943 75.2225 55.0943 85.5581V85.6059C55.0943 95.9415 64.6435 104.32 76.4231 104.32H107.877C109.052 104.32 110.204 104.237 111.328 104.076L117.422 109.241C117.587 109.381 117.809 109.46 118.039 109.46C118.53 109.46 118.928 109.111 118.928 108.68L118.928 101.615C125.089 98.334 129.206 92.3917 129.206 85.6059V85.5581C129.206 75.2225 119.656 66.8438 107.877 66.8438H76.4231Z" fill="#1D4885"/>
<path d="M81.5964 22.0075H36.6853C19.8573 22.0075 6.21558 33.977 6.21558 48.7422C6.21558 63.5074 19.8573 75.4769 36.6853 75.4769H81.5964C98.4244 75.4769 112.066 63.5074 112.066 48.7422C112.066 33.977 98.4244 22.0075 81.5964 22.0075Z" fill="url(#paint1_linear_37_1686)"/>
<path fill-rule="evenodd" clip-rule="evenodd" d="M20.895 67.7002V81.6961C20.895 82.3113 21.4634 82.8101 22.1646 82.8101C22.4934 82.8101 22.8095 82.6981 23.0461 82.4978L34.7678 72.5741L20.895 67.7002Z" fill="url(#paint2_linear_37_1686)"/>
<path d="M38.7484 52.0841C41.4655 52.0841 43.668 50.1515 43.668 47.7675C43.668 45.3836 41.4655 43.451 38.7484 43.451C36.0314 43.451 33.8289 45.3836 33.8289 47.7675C33.8289 50.1515 36.0314 52.0841 38.7484 52.0841Z" fill="white"/>
<path d="M58.903 52.0841C61.62 52.0841 63.8226 50.1515 63.8226 47.7675C63.8226 45.3836 61.62 43.451 58.903 43.451C56.186 43.451 53.9834 45.3836 53.9834 47.7675C53.9834 50.1515 56.186 52.0841 58.903 52.0841Z" fill="white"/>
<path d="M79.5334 52.0841C82.2504 52.0841 84.453 50.1515 84.453 47.7675C84.453 45.3836 82.2504 43.451 79.5334 43.451C76.8164 43.451 74.6138 45.3836 74.6138 47.7675C74.6138 50.1515 76.8164 52.0841 79.5334 52.0841Z" fill="white"/>
<defs>
<linearGradient id="paint0_linear_37_1686" x1="175.583" y1="-203.881" x2="74.4065" y2="149.837" gradientUnits="userSpaceOnUse">
<stop stop-color="#5498FF"/>
<stop offset="0.515625" stop-color="#428EFF"/>
<stop offset="1" stop-color="#297FFF"/>
</linearGradient>
<linearGradient id="paint1_linear_37_1686" x1="132.909" y1="-58.8794" x2="111.458" y2="89.5807" gradientUnits="userSpaceOnUse">
<stop stop-color="#5498FF"/>
<stop offset="0.515625" stop-color="#428EFF"/>
<stop offset="1" stop-color="#297FFF"/>
</linearGradient>
<linearGradient id="paint2_linear_37_1686" x1="37.4995" y1="44.8426" x2="25.337" y2="83.8823" gradientUnits="userSpaceOnUse">
<stop stop-color="#5498FF"/>
<stop offset="0.515625" stop-color="#428EFF"/>
<stop offset="1" stop-color="#297FFF"/>
</linearGradient>
</defs>
</svg>
